<svg preserveAspectRatio="none" overflow="visible" style="display: block;" width="16" height="16" viewBox="0 0 16 16" fill="none" xmlns="http://www.w3.org/2000/svg">
<g id="svg">
<path id="Vector" fill-rule="evenodd" clip-rule="evenodd" d="M14.4 4.7199V5.1199C14.4 9.4399 11.12 14.4799 5.04 14.4799C3.2 14.4799 1.44 13.9199 0 13.0399C0.24 13.0399 0.56 13.1199 0.8 13.1199C2.32 13.1199 3.76 12.5599 4.88 11.6799C3.44 11.6799 2.24 10.7199 1.84 9.4399C2.08 9.4399 2.24 9.5199 2.48 9.5199C2.8 9.5199 3.12 9.5199 3.36 9.4399C1.84 9.1199 0.8 7.8399 0.8 6.2399V6.1599C0.8 6.3999 1.68 6.5599 2.24 6.5599C1.36 5.9999 0.72 4.9599 0.72 3.8399C0.72 3.1999 0.88 2.6399 1.2 2.1599C2.8 4.1599 5.2 5.4399 8 5.5999C7.84 5.2799 7.76 5.0399 7.76 4.7999C7.76 2.9599 9.2 1.5199 11.04 1.5199C12 1.5199 12.8 1.9199 13.44 2.5599C14.16 2.3999 14.88 2.1599 15.52 1.7599C15.28 2.5599 14.72 3.1999 14.08 3.5999C14.72 3.5199 15.36 3.3599 16 3.1199C15.52 3.6799 15.04 4.2399 14.4 4.7199V4.7199Z" fill="white"/>
</g>
</svg>
